<?xml version="1.0" standalone="no"?>
<!DOCTYPE svg PUBLIC "-//W3C//DTD SVG 20010904//EN"
 "http://www.w3.org/TR/2001/REC-SVG-20010904/DTD/svg10.dtd">
<svg version="1.0" xmlns="http://www.w3.org/2000/svg"
 width="180.000000pt" height="180.000000pt" viewBox="0 0 180.000000 180.000000"
 preserveAspectRatio="xMidYMid meet">

<g transform="translate(0.000000,180.000000) scale(0.100000,-0.100000)"
fill="#000000" stroke="none">
<path d="M1192 1788 c-7 -7 -12 -39 -12 -75 l0 -63 -561 -2 -561 -3 -29 -33
-30 -34 3 -185 3 -185 33 -29 32 -29 555 0 555 0 0 -64 c0 -70 14 -92 50 -81
35 11 533 353 555 380 18 24 18 28 5 51 -16 26 -545 364 -570 364 -9 0 -21 -5
-28 -12z"/>
<path d="M83 475 c-30 -19 -46 -37 -58 -70 -35 -91 1 -146 122 -185 81 -27 93
-35 93 -65 0 -51 -55 -67 -141 -41 -41 13 -50 13 -68 -1 -31 -21 -24 -62 14
-85 17 -9 55 -20 85 -24 144 -17 246 78 211 196 -15 50 -59 86 -129 106 -90
26 -115 59 -67 90 21 13 31 14 79 3 63 -14 86 -4 86 37 0 63 -146 87 -227 39z"/>
<path d="M509 480 c-49 -26 -106 -91 -118 -137 -57 -203 90 -378 279 -333 62
15 131 74 155 132 36 88 19 207 -40 284 -53 69 -194 97 -276 54z m182 -96 c71
-63 60 -233 -17 -275 -36 -19 -95 -17 -128 5 -34 22 -65 88 -66 138 0 55 28
117 64 140 39 24 116 20 147 -8z"/>
<path d="M1021 489 c-106 -42 -167 -168 -142 -291 27 -128 138 -211 260 -193
125 19 201 113 201 247 0 105 -56 196 -142 232 -41 17 -139 20 -177 5z m144
-91 c35 -16 65 -67 72 -126 7 -60 -21 -131 -63 -158 -33 -22 -92 -24 -129 -4
-58 31 -84 146 -51 225 26 62 107 92 171 63z"/>
<path d="M1401 486 c-8 -9 -11 -82 -9 -242 l3 -229 40 0 40 0 3 148 c1 81 6
147 10 147 4 -1 57 -67 117 -148 93 -123 116 -148 140 -150 51 -6 55 10 55
243 0 200 -1 213 -20 230 -16 15 -26 17 -48 9 l-27 -9 -5 -150 -5 -149 -113
151 c-62 83 -120 154 -128 157 -25 9 -41 7 -53 -8z"/>
</g>
</svg>
